<?xml version="1.0" standalone="no"?><!DOCTYPE svg PUBLIC "-//W3C//DTD SVG 1.1//EN" "http://www.w3.org/Graphics/SVG/1.1/DTD/svg11.dtd"><svg t="1763517414297" class="icon" viewBox="0 0 1024 1024" version="1.1" xmlns="http://www.w3.org/2000/svg" p-id="1702" xmlns:xlink="http://www.w3.org/1999/xlink" width="200" height="200"><path d="M768 932H256c-90.44 0-164-73.56-164-164V256c0-90.44 73.56-164 164-164h512c90.44 0 164 73.56 164 164v512c0 90.44-73.56 164-164 164zM256 164c-50.72 0-92 41.28-92 92v512c0 50.72 41.28 92 92 92h512c50.72 0 92-41.28 92-92V256c0-50.72-41.28-92-92-92H256z" p-id="1703"></path><path d="M640 484H384c-55.12 0-100-44.88-100-100V128a36 36 0 0 1 72 0v256c0 15.44 12.56 28 28 28h256c15.44 0 28-12.56 28-28V128a36 36 0 0 1 72 0v256c0 55.12-44.88 100-100 100z" p-id="1704"></path><path d="M576 356a36 36 0 0 1-36-36V256a36 36 0 0 1 72 0v64a36 36 0 0 1-36 36z" p-id="1705"></path></svg>