<?xml version="1.0" standalone="no"?><!DOCTYPE svg PUBLIC "-//W3C//DTD SVG 1.1//EN" "http://www.w3.org/Graphics/SVG/1.1/DTD/svg11.dtd"><svg t="1763518945529" class="icon" viewBox="0 0 1024 1024" version="1.1" xmlns="http://www.w3.org/2000/svg" p-id="1854" xmlns:xlink="http://www.w3.org/1999/xlink" width="200" height="200"><path d="M562.92 512l270.56-270.56c14.04-14.04 14.04-36.84 0-50.92s-36.84-14.08-50.92 0L512 461.08 241.44 190.56c-14.08-14.08-36.84-14.08-50.92 0s-14.04 36.84 0 50.92l270.56 270.56-270.56 270.56c-14.04 14.04-14.04 36.84 0 50.92 7.04 7.04 16.24 10.56 25.44 10.56s18.44-3.52 25.44-10.56l270.56-270.56 270.56 270.56c7.04 7.04 16.24 10.56 25.44 10.56s18.44-3.52 25.44-10.56c14.04-14.04 14.04-36.84 0-50.92l-270.56-270.56z" p-id="1855"></path></svg>