<?xml version="1.0" standalone="no"?><!DOCTYPE svg PUBLIC "-//W3C//DTD SVG 1.1//EN" "http://www.w3.org/Graphics/SVG/1.1/DTD/svg11.dtd"><svg t="1763517406986" class="icon" viewBox="0 0 1024 1024" version="1.1" xmlns="http://www.w3.org/2000/svg" p-id="1551" xmlns:xlink="http://www.w3.org/1999/xlink" width="200" height="200"><path d="M736 964H288c-90.44 0-164-73.56-164-164V224c0-90.44 73.56-164 164-164h320c9.56 0 18.72 3.8 25.44 10.56l256 256A36.004 36.004 0 0 1 900 352v448c0 90.44-73.56 164-164 164zM288 132c-50.72 0-92 41.28-92 92v576c0 50.72 41.28 92 92 92h448c50.72 0 92-41.28 92-92V366.92L593.08 132H288z" p-id="1552"></path><path d="M864 388h-128c-90.44 0-164-73.56-164-164V96a36 36 0 0 1 72 0v128c0 50.72 41.28 92 92 92h128a36 36 0 0 1 0 72z" p-id="1553"></path></svg>